<svg version="1.1" id="Layer_1" xmlns="http://www.w3.org/2000/svg" xmlns:xlink="http://www.w3.org/1999/xlink" x="0px" y="0px"
	 width="612px" height="792px" viewBox="0 0 612 792" enable-background="new 0 0 612 792" xml:space="preserve">
<g>
	<polygon fill-rule="evenodd" clip-rule="evenodd" fill="red" points="209,300 401.756,300 401.756,492.756 209,492.756 
		209,300 	"/>
	<path fill-rule="evenodd" clip-rule="evenodd" d="M242.633,316.585c-0.909,8,2.243,15.273,8.969,19.636
		c10.485,7.212,22.727,10.06,32.727,18.363c2.728,2.545,4.485,5.697,3.94,9.455c-8.122,8.969-14.243,20.484-10.304,32.848
		c2.849,9.938,7.333,19.211,12.182,28.361c-9.212,4.547-20.788,9.818-24.848,20.363c-0.909,2.666-1.879,5.273-2.303,8.121
		c-1.333-8.605-6.242-16.363-13.575-22.242c0.546,3.455-0.061,7.152-1.697,10.061c-4.484,6.363-7.575,14.969-4.546,22.848
		c1.819,5.516,7.334,10.666,12.788,12.363c-10.242-0.242-20.666-5.514-25.272-15.15c-4.06-8.605-2.242-20.242,3.455-27.514
		c3.818-5.818,10.424-11.092,8.606-18.729c7.696,4.426,17.515,6.303,22.423,15.092c0.606-0.848,0-1.939,0-2.91
		c-2.848-9.938-13.939-10.969-21.09-15.816c-7.575-3.031-14.242-10.85-14.727-19.211c-0.667-4.97-0.243-10.242,1.879-14.424
		c4.787,8.909,14.908,11.03,22.726,15.576c4.667,2.484,10.061,4.544,13.091,9.757c0.182-4.182-2.364-7.879-5.818-10.485
		c-12.545-6.788-32.545-12.848-32.908-30.848c-0.182-5.151,1.151-9.636,3.394-13.818c0.606,0.606,0.606,1.758,1.151,2.485
		c7.939,11.939,21.454,13.151,31.394,22c1.515,1.515,2.423,3.394,3.636,5.09c1.031-4.909-1.697-9.333-5.818-12.121
		c-2.727-1.758-5.939-2.788-8.545-4.606c-9.697-4.182-21.757-12.727-22.121-24.605c-1.758-10.667,3.939-20.06,12.666-26.302
		C243.603,312.04,242.633,314.283,242.633,316.585L242.633,316.585z"/>
	<path fill-rule="evenodd" clip-rule="evenodd" d="M306.752,462.217c2.728-10.061-2.424-21.332,1.575-31.15
		c0-0.242,0.122-0.545-0.121-0.727c-2.242,1.818-4.06,3.695-6.242,5.697c3.394-6.971,6.181-15.516,4.364-24.182
		c-0.243-0.668-0.788,0-0.909,0.303c-1.818,5.393-7.151,9.271-12.061,11.637c-6.121-12-13.454-23.637-12.787-38.242
		c1.515-13.333,14.545-21.454,19.939-33.15c1.272-4.122,0.484-8.849-2.485-11.939c-2.849-2.788-6.303-4.061-10.06-4.666
		c0.484-1.637,1.757-3.333,3.394-4.061c3.272-1.636,7.151-0.182,10.181,1.03c5.091-2.424,11.151-0.121,15.817,2
		c4.546,2,8.242,6.121,13.697,6c-0.122,1.394-1.758,2.364-2.909,2.909c-4.303,0.606-8-1.515-11.636-2.485
		c4.363,6.97,2.605,16.363,0.121,23.696c0.06,0.061,0.121,0.122,0.182,0.122c4.787-6.606,12.06-11.091,18.908-14.667
		c7.151-3.454,14.363-6.727,21.515-10.302c6.728-4.122,12.424-11.212,12.182-19.515c-0.182-2.97-0.606-5.879-1.879-8.425
		c8.97,6.061,13.696,15.333,12.545,26c-0.908,10.061-8.97,19.939-18.484,23.151c-7.272,4.666-19.999,7.272-20.363,18.302
		c2.304-3.636,6-6.849,9.879-8.545c10-5.879,22.787-8.243,28.484-20.061c0.121,0,0.242,0,0.303,0
		c4.242,8.909,3.272,21.272-3.636,28.605c-8,8.606-19.151,10.302-28.363,16.484c-4.303,2.666-6.667,7.152-6.849,11.758
		c5.091-9.516,15.818-10.971,24-15.697c5.333-2.606,11.151-5.394,14.727-10.605c0.061,0,0.182,0,0.303,0
		c2.425,9.636,1.454,21.392-6.727,28.06c-7.454,6-16.363,8.545-24.303,13.514c-2.606,1.939-4.121,4.545-5.091,7.273
		c0.121,0.121,0.243,0.182,0.303,0.303c6.97-7.273,16.909-7.455,24.424-13.395c-1.454,10.729,9.758,16.787,11.091,26.605
		c2.484,10.969-1.333,21.697-10.061,28.787c-5.394,4.061-12.362,4.85-19.211,4.971c1.212-0.242,2.484-0.85,3.817-1.031
		c5.879-2.121,11.212-7.818,11.636-14.242c0.849-10.969-10.242-19.635-3.938-30.664c-1.758,0.119-3.272,1.695-4.97,2.605
		c-9.151,6.121-12.909,16.061-18.908,24.301c-0.062,0-0.183,0-0.243,0c3.576-5.877,1.516-14.119,6.242-19.514
		c0.546-0.303,0.667-1.092,1.031-1.576c-3.273,0.363-6.304,2.242-9.03,4.363c-13.939,9.395-14.848,29.455-32.423,34
		c-4.606,1.332-10.06,1.758-14.848,1.332C296.692,476.035,304.874,470.277,306.752,462.217L306.752,462.217z M314.449,452.58
		c6.908-9.211,21.817-12.787,22.969-25.756c-1.939,1.697-4.242,2.545-6.242,4.242c-0.182,0.061-0.546,0.303-0.728,0
		c1.758-3.15,2.484-6.727,3.333-10.182c0.243-2.121,0.788-4.424,0.909-6.242c-5.454,5.455-12.97,7.516-17.151,14.545
		C312.57,435.914,314.813,444.703,314.449,452.58L314.449,452.58z"/>
	<path fill-rule="evenodd" clip-rule="evenodd" d="M293.964,434.279c-4,8.545,0.788,19.998-4.06,28.361
		c-4.667,9.516-14.969,15.637-25.938,14.545c3.757-0.848,6.787-4.848,7.757-8.301c1.818-7.152,0.606-15.637,5.515-21.516
		c4.605-7.334,12.484-10.061,18.302-16C295.54,432.219,294.329,433.248,293.964,434.279L293.964,434.279z"/>
	<path fill-rule="evenodd" clip-rule="evenodd" d="M355.478,446.217c-2.908,6.123,0.242,13.152-2.605,19.637
		c-2.304,5.879-8.484,10.242-14.545,11.029c-7.212,0.607-14.303,0.607-21.515,0.607c14.424-2.426,26.303-14.303,33.999-26.787
		C352.084,449.066,353.721,447.248,355.478,446.217L355.478,446.217z"/>
</g>
</svg>